<svg width="23" height="17" viewBox="0 0 23 17" fill="none" xmlns="http://www.w3.org/2000/svg">
<path d="M2.57872 7.00971C2.07465 6.50564 1.25738 6.50564 0.753313 7.00971C0.249241 7.51379 0.249241 8.33105 0.753313 8.83512L2.57872 7.00971ZM8.72721 14.9836L7.81451 15.8963C8.05657 16.1384 8.38488 16.2744 8.72721 16.2744C9.06954 16.2744 9.39785 16.1384 9.63991 15.8963L8.72721 14.9836ZM22.5854 2.95079C23.0895 2.44672 23.0895 1.62946 22.5854 1.12538C22.0814 0.621312 21.2641 0.621312 20.76 1.12538L22.5854 2.95079ZM0.753313 8.83512L7.81451 15.8963L9.63991 14.0709L2.57872 7.00971L0.753313 8.83512ZM9.63991 15.8963L22.5854 2.95079L20.76 1.12538L7.81451 14.0709L9.63991 15.8963Z" fill="#5467EA"/>
<path d="M2.57872 7.00971C2.07465 6.50564 1.25738 6.50564 0.753313 7.00971C0.249241 7.51379 0.249241 8.33105 0.753313 8.83512L2.57872 7.00971ZM8.72721 14.9836L7.81451 15.8963C8.05657 16.1384 8.38488 16.2744 8.72721 16.2744C9.06954 16.2744 9.39785 16.1384 9.63991 15.8963L8.72721 14.9836ZM22.5854 2.95079C23.0895 2.44672 23.0895 1.62946 22.5854 1.12538C22.0814 0.621312 21.2641 0.621312 20.76 1.12538L22.5854 2.95079ZM0.753313 8.83512L7.81451 15.8963L9.63991 14.0709L2.57872 7.00971L0.753313 8.83512ZM9.63991 15.8963L22.5854 2.95079L20.76 1.12538L7.81451 14.0709L9.63991 15.8963Z" fill="url(#paint0_linear_130_9422)"/>
<defs>
<linearGradient id="paint0_linear_130_9422" x1="27.4439" y1="19.2026" x2="18.6796" y2="-4.05906" gradientUnits="userSpaceOnUse">
<stop stop-color="#0052D4"/>
<stop offset="0.386694" stop-color="#4364F7"/>
<stop offset="1" stop-color="#6FB1FC"/>
</linearGradient>
</defs>
</svg>
