<svg width="157" height="80" viewBox="0 0 157 80" fill="none" xmlns="http://www.w3.org/2000/svg">
<g clip-path="url(#clip0_130_9503)">
<path fill-rule="evenodd" clip-rule="evenodd" d="M34.8898 71.2298H28.6374L23.9268 65.6461C25.708 65.6461 27.0535 65.6851 28.4789 64.2305C29.3102 65.0969 30.5379 65.6461 31.7641 65.6461C33.0311 65.6461 34.1793 65.1354 35.0493 64.2305C35.9217 65.0969 37.1082 65.6461 38.3349 65.6461H39.6019L34.8898 71.2298ZM8.52557 27.0601C9.67329 26.3126 9.67329 24.3857 8.40634 23.7961C8.88181 22.8122 9.03981 20.2957 8.96033 16.2831L13.6317 18.3289V27.0601C11.823 30.1977 10.8681 33.749 10.8608 37.3644C10.8608 42.1249 11.85 45.2316 14.6994 49.0078C16.4419 51.3279 17.9468 53.1377 18.9758 55.9296C20.1628 59.1147 19.8482 62.5371 19.8482 65.9195L31.7607 80.0005L43.6756 65.92V60.1765C43.7163 58.7219 44.0328 57.3062 44.548 55.9296C45.6143 53.0973 47.1203 51.2879 48.8617 48.9283C51.6729 45.1926 52.6616 42.0845 52.6616 37.3644C52.6616 33.7061 51.6719 30.1667 49.8921 27.0601V18.3289L54.562 16.2831L56.1455 15.5755L63.1913 12.5079L31.7607 0L0.332031 12.5079L7.37784 15.5755C7.45685 19.7835 7.13938 22.4194 6.42738 23.5597C4.96268 23.835 4.52695 25.8408 5.83316 26.7848C5.2404 29.2623 4.68544 31.502 4.13145 32.8016C7.29803 32.8799 9.03981 32.8799 9.3568 32.8016C8.88181 30.2842 8.60409 28.3573 8.52557 27.0591V27.0601ZM18.6588 25.7224C23.0529 24.779 27.4073 24.3458 31.7607 24.4642C36.1156 24.3458 40.4699 24.779 44.8641 25.7224C47.6335 28.83 49.3362 32.9201 49.3362 37.3644C49.3362 46.5288 44.0328 47.8665 41.4597 54.7893C40.8 56.4872 40.4255 58.2811 40.3512 60.0995V63.1282H38.331C37.2235 63.1282 36.3123 62.2237 36.3123 61.0834V53.7669V53.7264V53.6874V53.6485V53.608C36.3123 51.9575 36.3123 50.344 36.4316 48.6934C36.5494 47.4337 36.7093 46.1365 37.0258 44.9947C38.2133 45.428 39.361 45.7033 40.2732 45.6629C42.0922 45.5849 43.3998 44.3266 43.3199 42.4378C43.2399 40.6284 41.8174 39.2907 40.0347 39.1333C37.9758 38.9764 36.5935 39.9998 35.6798 41.5723C34.9559 41.1371 34.2554 40.6646 33.5812 40.1567C34.5302 39.0563 35.2029 37.9155 35.3614 36.7752C35.6779 34.4936 34.3324 32.6452 31.7592 32.6452C29.1861 32.6452 27.8406 34.4936 28.1571 36.7752C28.3156 37.9155 28.9883 39.0563 29.9388 40.1567C29.2648 40.6651 28.5644 41.1381 27.8406 41.5738C26.9309 40.0002 25.5461 38.9779 23.4872 39.1338C21.7065 39.2922 20.282 40.6298 20.204 42.4392C20.1254 44.3266 21.4317 45.5849 23.2526 45.6643C24.1633 45.7047 25.3115 45.4294 26.5 44.9962C26.8165 46.1379 26.975 47.4352 27.0942 48.6949C27.212 50.5823 27.212 52.2732 27.212 53.3741V53.5705V53.6095V53.6499V53.7279V53.7683V61.0848C27.212 62.2252 26.3022 63.1296 25.1938 63.1296H23.1707V60.101C23.0967 58.2826 22.7226 56.4886 22.0632 54.7907C19.49 47.8689 14.1852 46.5312 14.1852 37.3658C14.1852 32.9215 15.8879 28.8315 18.6588 25.7239V25.7224ZM33.7809 53.6889C33.7809 51.9589 33.7809 50.227 33.9379 48.497C34.0571 46.963 34.2951 45.35 34.6906 43.8953C33.6518 43.3349 32.6705 42.6752 31.7607 41.9256C30.8512 42.675 29.8701 43.3343 28.8313 43.8939C29.2282 45.3485 29.4653 46.9615 29.584 48.4956C29.7425 50.3844 29.7425 52.1924 29.7425 53.3726V53.6485V53.6874V53.7264V53.7669V61.0834C29.7425 62.2237 30.6537 63.1282 31.7607 63.1282C32.8677 63.1282 33.7804 62.2237 33.7804 61.0834V53.7669V53.7264V53.6874L33.7809 53.6889ZM30.6537 36.4209C30.7715 37.05 31.1679 37.7586 31.7607 38.4267C32.3549 37.7586 32.7504 37.05 32.8697 36.4209C33.1062 34.651 30.376 34.5335 30.6537 36.4209ZM25.5461 42.6746C25.0711 42.0065 24.4798 41.6128 23.6864 41.6518C22.6564 41.7307 22.2609 43.1074 23.3302 43.1463C23.9636 43.1463 24.7149 42.9894 25.5461 42.6746ZM39.8365 41.6518C39.0445 41.6128 38.4503 42.0065 37.9753 42.6746C38.808 42.9894 39.5592 43.1463 40.1927 43.1463C41.259 43.1074 40.8262 41.7307 39.8365 41.6518Z" fill="white"/>
<path d="M72.0163 42.1664C72.9667 42.1664 73.6002 42.048 73.955 41.8906C74.3519 41.6942 74.5492 41.3799 74.5492 40.8677C74.5492 40.4345 74.3112 40.1202 73.797 39.8054C73.3215 39.491 72.5703 39.1762 71.5796 38.7835C70.8485 38.5272 70.1346 38.2251 69.4421 37.879C68.812 37.5647 68.2551 37.2094 67.8189 36.7777C67.3454 36.3445 67.0284 35.8333 66.7526 35.2436C66.5142 34.6135 66.3964 33.9064 66.3964 33.0775C66.3964 31.426 67.0299 30.1278 68.2566 29.1444C69.4828 28.201 71.1463 27.7283 73.323 27.7283C74.3927 27.7283 75.4212 27.8077 76.3716 28.0041C77.3608 28.201 78.1528 28.3978 78.7466 28.6332L77.8741 32.4879C77.2809 32.291 76.6474 32.1336 75.9732 31.9767C75.299 31.8198 74.509 31.7403 73.6778 31.7403C72.0938 31.7403 71.3426 32.1736 71.3426 33.04C71.3426 33.2364 71.3426 33.3933 71.4225 33.5517C71.5173 33.7362 71.6525 33.8974 71.818 34.0234C72.0153 34.1408 72.293 34.2982 72.6488 34.4951C73.005 34.6525 73.4407 34.8494 73.9574 35.0458C75.0664 35.4395 75.9769 35.8329 76.6891 36.226C77.3126 36.5646 77.8854 36.9881 78.3908 37.4843C78.7858 37.956 79.1028 38.4677 79.2632 39.0184C79.4237 39.569 79.4997 40.1986 79.4997 40.9438C79.4997 42.6737 78.8663 43.971 77.561 44.8369C76.2548 45.7414 74.3951 46.1741 72.0192 46.1741C70.4357 46.1741 69.129 46.0562 68.1005 45.7804C67.072 45.5046 66.3193 45.3086 65.9238 45.1123L66.7551 41.1007C67.6275 41.4155 68.497 41.6908 69.3675 41.8482C70.2787 42.0446 71.1487 42.163 72.0192 42.163L72.0163 42.1664ZM92.9167 36.4234C92.9167 34.8114 92.7189 33.7095 92.2832 33.0409C91.8877 32.3728 91.1757 32.0181 90.1458 32.0181C89.8282 32.0266 89.5113 32.053 89.1968 32.097C88.8628 32.0948 88.5299 32.1346 88.2061 32.2154V45.7034H83.2206V28.7901C83.6569 28.6727 84.1304 28.5552 84.7232 28.4368C85.2767 28.3184 85.8709 28.201 86.5436 28.122C87.1842 28.0028 87.8317 27.9239 88.4823 27.8857C89.1551 27.8077 89.8278 27.8077 90.4613 27.8077C91.7283 27.8077 92.7576 27.9649 93.5492 28.2794C94.3412 28.5942 95.0139 28.9875 95.5282 29.4202C96.2416 28.9085 97.0728 28.5153 97.9821 28.2404C98.9326 27.9261 99.7638 27.8072 100.556 27.8072C101.941 27.8072 103.129 28.0036 104.04 28.3974C104.912 28.7511 105.661 29.3023 106.176 30.0094C106.731 30.7565 107.087 31.5829 107.286 32.5663C107.5 33.6412 107.606 34.7347 107.601 35.8304V45.7029H102.617V36.421C102.617 34.8089 102.379 33.7071 101.983 33.0385C101.547 32.3704 100.875 32.0157 99.8462 32.0157C99.5685 32.0157 99.2122 32.0946 98.7372 32.213C98.2622 32.3704 97.8648 32.5278 97.5502 32.7237C97.7087 33.2349 97.7873 33.7861 97.8265 34.3363C97.8667 34.9264 97.906 35.516 97.906 36.1452V45.7034H92.9181L92.9167 36.4234ZM118.844 42.2444C119.358 42.2444 119.794 42.2444 120.27 42.2054C120.627 42.2049 120.983 42.1788 121.336 42.1274V38.3488C121.139 38.3088 120.822 38.2694 120.426 38.2304C120.031 38.1914 119.635 38.1514 119.318 38.1514C118.881 38.1559 118.445 38.1822 118.012 38.2304C117.575 38.3088 117.22 38.3878 116.903 38.5447C116.587 38.7016 116.349 38.9389 116.152 39.1738C115.993 39.4496 115.913 39.803 115.913 40.1972C115.913 40.9447 116.152 41.4944 116.705 41.8102C117.22 42.0846 117.933 42.2434 118.843 42.2434L118.844 42.2444ZM118.449 27.7283C119.913 27.7283 121.14 27.8857 122.132 28.2404C123.121 28.5552 123.912 29.0271 124.507 29.6561C125.1 30.2852 125.497 31.0327 125.775 31.9377C126.011 32.8041 126.13 33.7872 126.13 34.8869V45.2316C125.417 45.389 124.429 45.546 123.162 45.7813C121.856 45.9792 120.311 46.0961 118.53 46.0961C117.479 46.0994 116.431 45.9939 115.403 45.7813C114.493 45.5849 113.701 45.2706 113.028 44.7989C112.372 44.3468 111.84 43.7377 111.483 43.028C111.128 42.281 110.93 41.3775 110.93 40.3156C110.93 39.2922 111.167 38.4268 111.563 37.7197C111.96 37.0126 112.514 36.4605 113.226 36.0277C113.948 35.5699 114.756 35.2623 115.601 35.1237C116.51 34.9196 117.439 34.814 118.371 34.8089C118.954 34.8035 119.537 34.8427 120.114 34.9264C120.527 34.9569 120.938 35.0229 121.34 35.1237V34.6511C121.34 33.8251 121.064 33.117 120.549 32.6453C120.035 32.1336 119.163 31.8583 117.896 31.8583C117.048 31.8638 116.202 31.9298 115.364 32.0556C114.533 32.1736 113.819 32.3305 113.226 32.5668L112.593 28.5552C112.869 28.4758 113.226 28.3978 113.662 28.2794C114.098 28.161 114.572 28.083 115.086 28.0041C115.6 27.9251 116.156 27.8857 116.709 27.8077C117.303 27.7682 117.857 27.7283 118.451 27.7283H118.449ZM141.289 32.6058C140.814 32.4879 140.299 32.3704 139.705 32.252C139.067 32.1241 138.417 32.0583 137.766 32.0556C137.45 32.0556 137.054 32.0946 136.618 32.1336C136.182 32.213 135.867 32.252 135.629 32.3305V45.7034H130.641V29.1449C131.679 28.7837 132.736 28.4819 133.809 28.2409C135.035 27.9656 136.382 27.8472 137.886 27.8472C138.216 27.8429 138.546 27.8559 138.875 27.8862C139.231 27.9266 139.628 27.9656 139.984 28.0046C140.379 28.0835 140.776 28.1225 141.132 28.2014C141.472 28.2711 141.804 28.3765 142.122 28.5158L141.289 32.6058ZM144.613 23.8351L149.602 23.0486V28.199H155.618V32.3285H149.603V38.5081C149.603 39.5305 149.801 40.3565 150.157 40.9861C150.553 41.6152 151.265 41.9296 152.413 41.9296C152.928 41.9296 153.482 41.8516 154.075 41.7722C154.63 41.6542 155.145 41.5358 155.62 41.3389L156.332 45.2336C155.738 45.4689 155.066 45.6668 154.314 45.8627C153.561 46.0199 152.651 46.0984 151.582 46.0981C150.237 46.0981 149.088 45.9421 148.217 45.5479C147.307 45.1949 146.594 44.6837 146.079 44.0143C145.526 43.3852 145.17 42.5972 144.932 41.6557C144.718 40.6336 144.612 39.5924 144.615 38.5486L144.613 23.8351Z" fill="white"/>
<path d="M66.3184 57.3452C66.3184 56.7941 66.3978 56.3614 66.5549 55.9686C66.6959 55.601 66.9116 55.2661 67.1884 54.9847C67.4661 54.7103 67.7433 54.5139 68.0996 54.396C68.4165 54.2386 68.7723 54.1996 69.1281 54.1996C70.0005 54.1996 70.6306 54.435 71.1477 54.9457C71.6234 55.4592 71.8607 56.2065 71.8597 57.1878V57.5416C71.8597 57.6211 71.8597 57.738 71.8209 57.8175H68.0196C68.0603 58.1708 68.2188 58.4466 68.5353 58.6439C68.813 58.8403 69.1654 58.9587 69.6442 58.9587C69.9488 58.9534 70.2527 58.9269 70.5535 58.8793C70.8094 58.8174 71.0608 58.7388 71.3062 58.6439L71.504 60.0206C71.3896 60.0716 71.2702 60.1108 71.1477 60.1376C70.9897 60.1766 70.8312 60.217 70.6727 60.256C70.4777 60.3016 70.2787 60.3282 70.0785 60.3354C69.8689 60.3667 69.6569 60.3797 69.445 60.3744C68.8915 60.3744 68.4553 60.295 68.0603 60.1376C67.6899 59.9986 67.3528 59.7843 67.0706 59.5084C66.7933 59.2326 66.6344 58.9183 66.5156 58.5255C66.3576 58.1708 66.3184 57.7785 66.3184 57.3452V57.3452ZM70.237 56.6757C70.2297 56.5419 70.2033 56.4098 70.1585 56.2834C70.1178 56.126 70.0785 56.0076 70 55.9296C69.8808 55.8117 69.8013 55.7322 69.6442 55.6543C69.4907 55.6028 69.3298 55.5765 69.1678 55.5763C68.97 55.5763 68.813 55.5763 68.6938 55.6543C68.5353 55.7322 68.4553 55.8117 68.3366 55.8906C68.2479 56.0089 68.1809 56.1419 68.1388 56.2834C68.0996 56.4018 68.0603 56.5587 68.0196 56.6757H70.237ZM79.3005 57.2268C79.3005 57.738 79.4183 58.1708 79.6563 58.4851C79.854 58.7999 80.2098 58.9587 80.6853 58.9587C80.804 58.9587 80.9625 58.9587 81.0817 58.9183C81.1995 58.9183 81.3188 58.9183 81.3973 58.8793V55.8507C81.2714 55.7844 81.1389 55.7316 81.0018 55.6933C80.8338 55.6483 80.6613 55.6221 80.4875 55.6153C79.6956 55.6153 79.3005 56.165 79.3005 57.2268V57.2268ZM83.0607 60.0187C82.8928 60.0815 82.7211 60.1336 82.5465 60.1746C82.3521 60.2235 82.1527 60.2501 81.9522 60.2541C81.7311 60.302 81.5058 60.3286 81.2795 60.3335C81.0701 60.3671 80.858 60.3801 80.646 60.3725C80.1993 60.3775 79.7559 60.2971 79.3398 60.1356C78.982 60.0134 78.6571 59.8116 78.3896 59.5458C78.1222 59.2799 77.9194 58.957 77.7966 58.6016C77.6366 58.2093 77.5974 57.7765 77.5974 57.3019C77.5974 56.8273 77.6366 56.3975 77.7559 56.0023C77.8706 55.6604 78.0447 55.3412 78.2701 55.0588C78.501 54.7949 78.7839 54.5808 79.1013 54.4297C79.4183 54.2723 79.8148 54.2333 80.2098 54.2333C80.4483 54.2333 80.646 54.2333 80.8438 54.2723C81.0415 54.3113 81.1995 54.3907 81.3973 54.4687V51.8415L83.0607 51.5657V60.0187ZM94.4216 60.0187C94.1051 60.0967 93.7479 60.1746 93.3132 60.2541C92.8424 60.3345 92.3654 60.3742 91.8877 60.3725C91.3735 60.3725 90.977 60.293 90.6208 60.1356C90.3139 60.0224 90.0413 59.8332 89.8288 59.5859C89.631 59.3491 89.5137 59.0738 89.4338 58.7195C89.3504 58.3585 89.3103 57.989 89.3145 57.6187V54.3532H90.977V57.4252C90.977 57.9373 91.0565 58.3315 91.1757 58.5664C91.3328 58.8017 91.6098 58.9196 92.0069 58.9202H92.3627C92.5212 58.9202 92.6404 58.8812 92.7189 58.8812V54.3565H94.4216V60.0187ZM100.398 57.2653C100.403 56.8642 100.47 56.4662 100.596 56.0851C100.735 55.7166 100.951 55.3813 101.229 55.1012C101.487 54.8057 101.813 54.5765 102.179 54.4331C102.536 54.2757 102.971 54.1977 103.446 54.1977C103.763 54.1977 104.041 54.1977 104.319 54.2757C104.581 54.3124 104.836 54.3923 105.072 54.512L104.755 55.8487C104.597 55.7708 104.399 55.7303 104.2 55.6913C104.006 55.6436 103.807 55.6174 103.607 55.6134C103.093 55.6134 102.734 55.7708 102.498 56.0851C102.221 56.3999 102.101 56.7922 102.101 57.2653C102.101 57.8155 102.221 58.2093 102.459 58.5236C102.696 58.798 103.093 58.9568 103.646 58.9568C103.872 58.9474 104.097 58.9208 104.319 58.8774C104.535 58.8482 104.748 58.7954 104.952 58.72L105.191 60.0577C104.992 60.1746 104.755 60.2151 104.438 60.293C104.124 60.3429 103.806 60.3694 103.488 60.3725C102.934 60.3725 102.498 60.293 102.101 60.1356C101.735 59.9927 101.41 59.7634 101.153 59.4675C100.875 59.1917 100.717 58.8774 100.598 58.5236C100.469 58.1164 100.402 57.6922 100.4 57.2653H100.398ZM112.985 59.0738C113.144 59.0738 113.302 59.0348 113.461 59.0348C113.619 59.0348 113.738 59.0348 113.817 58.9958V57.738C113.723 57.7417 113.63 57.7285 113.541 57.699H112.71C112.587 57.7265 112.467 57.7661 112.352 57.8175C112.234 57.856 112.155 57.9354 112.076 58.0134C112.03 58.1267 112.003 58.2467 111.996 58.3686C111.996 58.6439 112.076 58.8018 112.273 58.9183C112.495 59.0256 112.739 59.0795 112.985 59.0757V59.0738ZM112.867 54.1977C113.343 54.1977 113.777 54.2367 114.094 54.3537C114.411 54.4706 114.689 54.629 114.886 54.8268C115.084 55.0622 115.242 55.2976 115.323 55.6134C115.406 55.9342 115.446 56.2645 115.442 56.5958V60.0577C115.203 60.0966 114.848 60.1746 114.451 60.2541C114.014 60.293 113.501 60.3335 112.867 60.3335C112.523 60.3279 112.179 60.3013 111.838 60.2541C111.522 60.1746 111.245 60.0577 111.048 59.9003C110.825 59.7532 110.647 59.5493 110.532 59.3101C110.398 59.0273 110.331 58.7181 110.334 58.4057C110.33 58.1054 110.398 57.8083 110.532 57.5392C110.685 57.3155 110.872 57.1169 111.087 56.9505C111.346 56.8117 111.627 56.7179 111.918 56.6733C112.215 56.5937 112.521 56.5543 112.828 56.5563C113.066 56.5563 113.264 56.5563 113.422 56.5953C113.558 56.5943 113.692 56.6208 113.817 56.6733V56.5173C113.824 56.261 113.74 56.0105 113.58 55.8093C113.383 55.6519 113.105 55.5739 112.669 55.5739C112.393 55.5739 112.116 55.5739 111.838 55.6519C111.583 55.6809 111.332 55.7336 111.087 55.8093L110.888 54.4716C111.007 54.4326 111.126 54.3936 111.245 54.3532C111.406 54.3464 111.565 54.3202 111.719 54.2752C111.918 54.2362 112.077 54.2362 112.274 54.1972L112.867 54.1977ZM121.615 52.898L123.279 52.6227V54.3527H125.297V55.7294H123.279V57.7756C123.279 58.1289 123.318 58.4047 123.476 58.642C123.596 58.8384 123.833 58.9568 124.188 58.9568C124.389 58.9495 124.588 58.9229 124.783 58.8774C124.941 58.8774 125.139 58.798 125.297 58.759L125.534 60.0586C125.317 60.1471 125.092 60.213 124.861 60.255C124.183 60.4366 123.464 60.4089 122.802 60.1756C122.523 60.0721 122.277 59.8956 122.09 59.6649C121.892 59.4281 121.773 59.1537 121.695 58.8394C121.615 58.5635 121.615 58.2102 121.615 57.8165V52.898ZM133.015 60.2146H131.353V54.3556H133.015V60.2146ZM133.174 52.6622C133.174 52.9375 133.095 53.1743 132.898 53.3703C132.699 53.5277 132.461 53.6461 132.184 53.6461C131.907 53.6461 131.67 53.5277 131.472 53.3703C131.273 53.1743 131.195 52.937 131.195 52.6622C131.195 52.3474 131.273 52.112 131.472 51.9147C131.678 51.7619 131.928 51.6793 132.185 51.6793C132.442 51.6793 132.692 51.7619 132.898 51.9147C133.095 52.112 133.174 52.3479 133.174 52.6622ZM144.852 57.2649C144.853 57.6921 144.786 58.1169 144.653 58.5231C144.512 58.8814 144.311 59.2137 144.06 59.506C143.782 59.7814 143.505 60.0182 143.149 60.1352C142.793 60.2926 142.397 60.372 141.922 60.372C141.514 60.3773 141.11 60.2966 140.735 60.1352C140.378 60.0182 140.101 59.7814 139.824 59.506C139.573 59.2134 139.372 58.8812 139.23 58.5231C139.097 58.1168 139.03 57.6921 139.032 57.2649C139.033 56.8374 139.1 56.4127 139.23 56.0052C139.37 55.6375 139.586 55.3029 139.863 55.0227C140.127 54.7603 140.435 54.5472 140.775 54.3936C141.144 54.2677 141.532 54.2014 141.922 54.1972C142.326 54.1982 142.727 54.2646 143.109 54.3936C143.449 54.5474 143.757 54.7605 144.021 55.0227C144.299 55.2946 144.503 55.6328 144.613 56.0052C144.776 56.4053 144.857 56.8334 144.852 57.2649V57.2649ZM143.149 57.2649C143.149 56.7527 143.031 56.359 142.832 56.0442C142.634 55.7703 142.317 55.6109 141.922 55.6109C141.753 55.6079 141.584 55.6457 141.433 55.7211C141.281 55.7966 141.149 55.9074 141.05 56.0442C140.851 56.359 140.733 56.7527 140.733 57.2649C140.733 57.777 140.851 58.2088 141.05 58.4827C141.141 58.6308 141.269 58.7525 141.422 58.8357C141.575 58.9188 141.748 58.9604 141.922 58.9563C142.317 58.9563 142.634 58.7975 142.832 58.4827C143.031 58.2088 143.149 57.7761 143.149 57.2649ZM150.828 54.551C151.106 54.4716 151.502 54.3936 151.936 54.3142C152.407 54.2333 152.884 54.1942 153.362 54.1972C153.792 54.1921 154.22 54.2585 154.629 54.3936C154.946 54.551 155.222 54.7079 155.419 54.9433C155.599 55.2085 155.733 55.5012 155.816 55.8097C155.899 56.1708 155.939 56.5403 155.935 56.9106V60.217H154.272V57.1089C154.272 56.5587 154.193 56.2054 154.035 55.9686C153.915 55.7322 153.64 55.6153 153.243 55.6153C153.124 55.6153 153.006 55.6543 152.887 55.6543C152.728 55.6543 152.609 55.6543 152.531 55.6933V60.218H150.828V54.551Z" fill="white"/>
<path d="M66.3184 57.3452C66.3184 56.7941 66.3978 56.3614 66.5549 55.9686C66.6959 55.601 66.9116 55.2661 67.1884 54.9847C67.4661 54.7103 67.7433 54.5139 68.0996 54.396C68.4165 54.2386 68.7723 54.1996 69.1281 54.1996C70.0005 54.1996 70.6306 54.435 71.1477 54.9457C71.6234 55.4592 71.8607 56.2065 71.8597 57.1878V57.5416C71.8597 57.6211 71.8597 57.738 71.8209 57.8175H68.0196C68.0603 58.1708 68.2188 58.4466 68.5353 58.6439C68.813 58.8403 69.1654 58.9587 69.6442 58.9587C69.9488 58.9534 70.2527 58.9269 70.5535 58.8793C70.8094 58.8174 71.0608 58.7388 71.3062 58.6439L71.504 60.0206C71.3896 60.0716 71.2702 60.1108 71.1477 60.1376C70.9897 60.1766 70.8312 60.217 70.6727 60.256C70.4777 60.3016 70.2787 60.3282 70.0785 60.3354C69.8689 60.3667 69.6569 60.3797 69.445 60.3744C68.8915 60.3744 68.4553 60.295 68.0603 60.1376C67.6899 59.9986 67.3528 59.7843 67.0706 59.5084C66.7933 59.2326 66.6344 58.9183 66.5156 58.5255C66.3576 58.1708 66.3184 57.7785 66.3184 57.3452V57.3452ZM70.237 56.6757C70.2297 56.5419 70.2033 56.4098 70.1585 56.2834C70.1178 56.126 70.0785 56.0076 70 55.9296C69.8808 55.8117 69.8013 55.7322 69.6442 55.6543C69.4907 55.6028 69.3298 55.5765 69.1678 55.5763C68.97 55.5763 68.813 55.5763 68.6938 55.6543C68.5353 55.7322 68.4553 55.8117 68.3366 55.8906C68.2479 56.0089 68.1809 56.1419 68.1388 56.2834C68.0996 56.4018 68.0603 56.5587 68.0196 56.6757H70.237ZM79.3005 57.2268C79.3005 57.738 79.4183 58.1708 79.6563 58.4851C79.854 58.7999 80.2098 58.9587 80.6853 58.9587C80.804 58.9587 80.9625 58.9587 81.0817 58.9183C81.1995 58.9183 81.3188 58.9183 81.3973 58.8793V55.8507C81.2714 55.7844 81.1389 55.7316 81.0018 55.6933C80.8338 55.6483 80.6613 55.6221 80.4875 55.6153C79.6956 55.6153 79.3005 56.165 79.3005 57.2268V57.2268ZM83.0607 60.0187C82.8928 60.0815 82.7211 60.1336 82.5465 60.1746C82.3521 60.2235 82.1527 60.2501 81.9522 60.2541C81.7311 60.302 81.5058 60.3286 81.2795 60.3335C81.0701 60.3671 80.858 60.3801 80.646 60.3725C80.1993 60.3775 79.7559 60.2971 79.3398 60.1356C78.982 60.0134 78.6571 59.8116 78.3896 59.5458C78.1222 59.2799 77.9194 58.957 77.7966 58.6016C77.6366 58.2093 77.5974 57.7765 77.5974 57.3019C77.5974 56.8273 77.6366 56.3975 77.7559 56.0023C77.8706 55.6604 78.0447 55.3412 78.2701 55.0588C78.501 54.7949 78.7839 54.5808 79.1013 54.4297C79.4183 54.2723 79.8148 54.2333 80.2098 54.2333C80.4483 54.2333 80.646 54.2333 80.8438 54.2723C81.0415 54.3113 81.1995 54.3907 81.3973 54.4687V51.8415L83.0607 51.5657V60.0187ZM94.4216 60.0187C94.1051 60.0967 93.7479 60.1746 93.3132 60.2541C92.8424 60.3345 92.3654 60.3742 91.8877 60.3725C91.3735 60.3725 90.977 60.293 90.6208 60.1356C90.3139 60.0224 90.0413 59.8332 89.8288 59.5859C89.631 59.3491 89.5137 59.0738 89.4338 58.7195C89.3504 58.3585 89.3103 57.989 89.3145 57.6187V54.3532H90.977V57.4252C90.977 57.9373 91.0565 58.3315 91.1757 58.5664C91.3328 58.8017 91.6098 58.9196 92.0069 58.9202H92.3627C92.5212 58.9202 92.6404 58.8812 92.7189 58.8812V54.3565H94.4216V60.0187ZM100.398 57.2653C100.403 56.8642 100.47 56.4662 100.596 56.0851C100.735 55.7166 100.951 55.3813 101.229 55.1012C101.487 54.8057 101.813 54.5765 102.179 54.4331C102.536 54.2757 102.971 54.1977 103.446 54.1977C103.763 54.1977 104.041 54.1977 104.319 54.2757C104.581 54.3124 104.836 54.3923 105.072 54.512L104.755 55.8487C104.597 55.7708 104.399 55.7303 104.2 55.6913C104.006 55.6436 103.807 55.6174 103.607 55.6134C103.093 55.6134 102.734 55.7708 102.498 56.0851C102.221 56.3999 102.101 56.7922 102.101 57.2653C102.101 57.8155 102.221 58.2093 102.459 58.5236C102.696 58.798 103.093 58.9568 103.646 58.9568C103.872 58.9474 104.097 58.9208 104.319 58.8774C104.535 58.8482 104.748 58.7954 104.952 58.72L105.191 60.0577C104.992 60.1746 104.755 60.2151 104.438 60.293C104.124 60.3429 103.806 60.3694 103.488 60.3725C102.934 60.3725 102.498 60.293 102.101 60.1356C101.735 59.9927 101.41 59.7634 101.153 59.4675C100.875 59.1917 100.717 58.8774 100.598 58.5236C100.469 58.1164 100.402 57.6922 100.4 57.2653H100.398ZM112.985 59.0738C113.144 59.0738 113.302 59.0348 113.461 59.0348C113.619 59.0348 113.738 59.0348 113.817 58.9958V57.738C113.723 57.7417 113.63 57.7285 113.541 57.699H112.71C112.587 57.7265 112.467 57.7661 112.352 57.8175C112.234 57.856 112.155 57.9354 112.076 58.0134C112.03 58.1267 112.003 58.2467 111.996 58.3686C111.996 58.6439 112.076 58.8018 112.273 58.9183C112.495 59.0256 112.739 59.0795 112.985 59.0757V59.0738ZM112.867 54.1977C113.343 54.1977 113.777 54.2367 114.094 54.3537C114.411 54.4706 114.689 54.629 114.886 54.8268C115.084 55.0622 115.242 55.2976 115.323 55.6134C115.406 55.9342 115.446 56.2645 115.442 56.5958V60.0577C115.203 60.0966 114.848 60.1746 114.451 60.2541C114.014 60.293 113.501 60.3335 112.867 60.3335C112.523 60.3279 112.179 60.3013 111.838 60.2541C111.522 60.1746 111.245 60.0577 111.048 59.9003C110.825 59.7532 110.647 59.5493 110.532 59.3101C110.398 59.0273 110.331 58.7181 110.334 58.4057C110.33 58.1054 110.398 57.8083 110.532 57.5392C110.685 57.3155 110.872 57.1169 111.087 56.9505C111.346 56.8117 111.627 56.7179 111.918 56.6733C112.215 56.5937 112.521 56.5543 112.828 56.5563C113.066 56.5563 113.264 56.5563 113.422 56.5953C113.558 56.5943 113.692 56.6208 113.817 56.6733V56.5173C113.824 56.261 113.74 56.0105 113.58 55.8093C113.383 55.6519 113.105 55.5739 112.669 55.5739C112.393 55.5739 112.116 55.5739 111.838 55.6519C111.583 55.6809 111.332 55.7336 111.087 55.8093L110.888 54.4716C111.007 54.4326 111.126 54.3936 111.245 54.3532C111.406 54.3464 111.565 54.3202 111.719 54.2752C111.918 54.2362 112.077 54.2362 112.274 54.1972L112.867 54.1977ZM121.615 52.898L123.279 52.6227V54.3527H125.297V55.7294H123.279V57.7756C123.279 58.1289 123.318 58.4047 123.476 58.642C123.596 58.8384 123.833 58.9568 124.188 58.9568C124.389 58.9495 124.588 58.9229 124.783 58.8774C124.941 58.8774 125.139 58.798 125.297 58.759L125.534 60.0586C125.317 60.1471 125.092 60.213 124.861 60.255C124.183 60.4366 123.464 60.4089 122.802 60.1756C122.523 60.0721 122.277 59.8956 122.09 59.6649C121.892 59.4281 121.773 59.1537 121.695 58.8394C121.615 58.5635 121.615 58.2102 121.615 57.8165V52.898ZM133.015 60.2146H131.353V54.3556H133.015V60.2146ZM133.174 52.6622C133.174 52.9375 133.095 53.1743 132.898 53.3703C132.699 53.5277 132.461 53.6461 132.184 53.6461C131.907 53.6461 131.67 53.5277 131.472 53.3703C131.273 53.1743 131.195 52.937 131.195 52.6622C131.195 52.3474 131.273 52.112 131.472 51.9147C131.678 51.7619 131.928 51.6793 132.185 51.6793C132.442 51.6793 132.692 51.7619 132.898 51.9147C133.095 52.112 133.174 52.3479 133.174 52.6622ZM144.852 57.2649C144.853 57.6921 144.786 58.1169 144.653 58.5231C144.512 58.8814 144.311 59.2137 144.06 59.506C143.782 59.7814 143.505 60.0182 143.149 60.1352C142.793 60.2926 142.397 60.372 141.922 60.372C141.514 60.3773 141.11 60.2966 140.735 60.1352C140.378 60.0182 140.101 59.7814 139.824 59.506C139.573 59.2134 139.372 58.8812 139.23 58.5231C139.097 58.1168 139.03 57.6921 139.032 57.2649C139.033 56.8374 139.1 56.4127 139.23 56.0052C139.37 55.6375 139.586 55.3029 139.863 55.0227C140.127 54.7603 140.435 54.5472 140.775 54.3936C141.144 54.2677 141.532 54.2014 141.922 54.1972C142.326 54.1982 142.727 54.2646 143.109 54.3936C143.449 54.5474 143.757 54.7605 144.021 55.0227C144.299 55.2946 144.503 55.6328 144.613 56.0052C144.776 56.4053 144.857 56.8334 144.852 57.2649V57.2649ZM143.149 57.2649C143.149 56.7527 143.031 56.359 142.832 56.0442C142.634 55.7703 142.317 55.6109 141.922 55.6109C141.753 55.6079 141.584 55.6457 141.433 55.7211C141.281 55.7966 141.149 55.9074 141.05 56.0442C140.851 56.359 140.733 56.7527 140.733 57.2649C140.733 57.777 140.851 58.2088 141.05 58.4827C141.141 58.6308 141.269 58.7525 141.422 58.8357C141.575 58.9188 141.748 58.9604 141.922 58.9563C142.317 58.9563 142.634 58.7975 142.832 58.4827C143.031 58.2088 143.149 57.7761 143.149 57.2649ZM150.828 54.551C151.106 54.4716 151.502 54.3936 151.936 54.3142C152.407 54.2333 152.884 54.1942 153.362 54.1972C153.792 54.1921 154.22 54.2585 154.629 54.3936C154.946 54.551 155.222 54.7079 155.419 54.9433C155.599 55.2085 155.733 55.5012 155.816 55.8097C155.899 56.1708 155.939 56.5403 155.935 56.9106V60.217H154.272V57.1089C154.272 56.5587 154.193 56.2054 154.035 55.9686C153.915 55.7322 153.64 55.6153 153.243 55.6153C153.124 55.6153 153.006 55.6543 152.887 55.6543C152.728 55.6543 152.609 55.6543 152.531 55.6933V60.218H150.828V54.551Z" fill="url(#paint0_linear_130_9503)"/>
</g>
<defs>
<linearGradient id="paint0_linear_130_9503" x1="166.992" y1="61.9356" x2="166.12" y2="46.2333" gradientUnits="userSpaceOnUse">
<stop stop-color="#D40000"/>
<stop offset="0.386694" stop-color="#F76343"/>
<stop offset="1" stop-color="#FC6F6F"/>
</linearGradient>
<clipPath id="clip0_130_9503">
<rect width="156" height="80" fill="white" transform="translate(0.332031)"/>
</clipPath>
</defs>
</svg>
