<svg width="21" height="21" viewBox="0 0 21 21" fill="none" xmlns="http://www.w3.org/2000/svg">
<mask id="mask0_133_9936" style="mask-type:alpha" maskUnits="userSpaceOnUse" x="1" y="4" width="15" height="14">
<path fill-rule="evenodd" clip-rule="evenodd" d="M1.75 4.37524H15.3127V17.9389H1.75V4.37524Z" fill="white"/>
</mask>
<g mask="url(#mask0_133_9936)">
<path fill-rule="evenodd" clip-rule="evenodd" d="M5.99122 5.68892C5.60709 5.68892 5.35947 5.68892 5.31659 5.69067C4.67084 5.7178 4.07497 5.99167 3.64534 6.46067C3.24459 6.89905 3.03809 7.45905 3.06522 8.04005C3.06522 10.5714 3.06609 14.3707 3.07222 14.5789C3.17197 15.7908 4.30772 16.7174 5.60797 16.6177C8.01422 16.6212 11.579 16.629 11.7461 16.6229C12.3892 16.5967 12.986 16.3237 13.4156 15.8555C13.8172 15.4189 14.0237 14.8589 13.9983 14.2805C13.9975 14.2709 13.9975 14.2613 13.9975 14.2517C13.9983 11.7492 13.9983 7.95255 13.9922 7.74867C13.8933 6.53067 12.7523 5.59267 11.4451 5.69505C9.63734 5.69242 7.17072 5.68892 5.99122 5.68892M5.37784 17.9389C3.52809 17.9398 1.91459 16.5223 1.76234 14.6629C1.75972 14.627 1.75097 14.5177 1.75359 8.0698C1.71159 7.16767 2.03884 6.27167 2.67759 5.5743C3.34434 4.8463 4.26397 4.42192 5.26759 4.37905C5.38922 4.3703 9.59622 4.3808 11.3978 4.3843C13.3666 4.24605 15.1437 5.7073 15.3021 7.66817C15.3091 7.76355 15.3117 9.97292 15.31 14.2385C15.3467 15.1625 15.0177 16.0524 14.3825 16.7437C13.7148 17.4708 12.7943 17.8934 11.7916 17.9345C11.6691 17.9433 7.46034 17.9319 5.65609 17.9284C5.56334 17.9354 5.47059 17.9389 5.37784 17.9389" fill="white"/>
</g>
<path fill-rule="evenodd" clip-rule="evenodd" d="M18.2156 16.0556C17.821 16.0556 17.4316 15.92 17.1105 15.6566L14.2396 13.2976C13.9596 13.0675 13.9194 12.6536 14.1495 12.3736C14.3788 12.0945 14.7926 12.0525 15.0726 12.2835L17.9426 14.6425C18.136 14.8 18.3303 14.7353 18.4055 14.6985C18.4808 14.6635 18.6549 14.5541 18.6549 14.3056L18.6654 7.87527C18.6663 7.62677 18.4913 7.5174 18.416 7.48152C18.3416 7.44652 18.1448 7.3809 17.9531 7.5384L15.0718 9.89652C14.79 10.1266 14.3779 10.0855 14.1486 9.80377C13.9185 9.52377 13.9605 9.11077 14.2405 8.88152L17.1219 6.52252C17.6504 6.0894 18.3618 6.00452 18.9786 6.2959C19.5955 6.58902 19.9788 7.19452 19.9779 7.87702L19.9674 14.3074C19.9665 14.9899 19.5824 15.5954 18.9664 15.8859C18.7249 16.0005 18.4694 16.0556 18.2156 16.0556" fill="white"/>
</svg>
