<svg width="21" height="21" viewBox="0 0 21 21" fill="none" xmlns="http://www.w3.org/2000/svg">
<path fill-rule="evenodd" clip-rule="evenodd" d="M10.5 3.0625C6.39888 3.0625 3.0625 6.39888 3.0625 10.5C3.0625 14.6011 6.39888 17.9375 10.5 17.9375C14.6011 17.9375 17.9375 14.6011 17.9375 10.5C17.9375 6.39888 14.6011 3.0625 10.5 3.0625ZM10.5 19.25C5.67525 19.25 1.75 15.3247 1.75 10.5C1.75 5.67525 5.67525 1.75 10.5 1.75C15.3247 1.75 19.25 5.67525 19.25 10.5C19.25 15.3247 15.3247 19.25 10.5 19.25Z" fill="white"/>
<path fill-rule="evenodd" clip-rule="evenodd" d="M13.5019 13.7309C13.3873 13.7309 13.2718 13.7011 13.1659 13.639L9.86713 11.6711C9.66938 11.5521 9.54688 11.3377 9.54688 11.1067V6.86475C9.54688 6.5025 9.84088 6.2085 10.2031 6.2085C10.5663 6.2085 10.8594 6.5025 10.8594 6.86475V10.734L13.8388 12.5102C14.1494 12.6966 14.2518 13.0991 14.0663 13.4106C13.9429 13.6162 13.725 13.7309 13.5019 13.7309Z" fill="white"/>
</svg>
